<svg width="14" height="14" viewBox="0 0 14 14" fill="none" xmlns="http://www.w3.org/2000/svg">
<path d="M9.94875 8.36717C9.83933 8.97858 9.54523 9.5418 9.10602 9.98101C8.66682 10.4202 8.1036 10.7143 7.49219 10.8237C7.47409 10.8265 7.45581 10.828 7.4375 10.8281C7.355 10.8284 7.27541 10.7977 7.21457 10.7419C7.15373 10.6862 7.11612 10.6096 7.10922 10.5274C7.10233 10.4452 7.12665 10.3634 7.17735 10.2983C7.22806 10.2332 7.30141 10.1897 7.38281 10.1762C8.33328 10.0165 9.13992 9.20936 9.30125 8.25779C9.31575 8.17193 9.36377 8.09534 9.43474 8.04489C9.46989 8.0199 9.5096 8.00208 9.55163 7.99245C9.59366 7.98281 9.63717 7.98155 9.67969 7.98873C9.7222 7.99591 9.76289 8.0114 9.79942 8.0343C9.83595 8.05721 9.86761 8.08708 9.8926 8.12223C9.91758 8.15737 9.9354 8.19708 9.94503 8.23911C9.95467 8.28114 9.95593 8.32465 9.94875 8.36717ZM11.7031 7.87498C11.7031 9.12233 11.2076 10.3186 10.3256 11.2006C9.4436 12.0826 8.24735 12.5781 7 12.5781C5.75265 12.5781 4.5564 12.0826 3.67439 11.2006C2.79238 10.3186 2.29688 9.12233 2.29688 7.87498C2.29687 6.37272 2.89023 4.83381 4.06055 3.30092C4.08865 3.26359 4.1244 3.23269 4.16541 3.21029C4.20642 3.18789 4.25174 3.17451 4.29834 3.17104C4.34493 3.16757 4.39174 3.1741 4.43561 3.19018C4.47948 3.20625 4.51941 3.23152 4.55273 3.26428L5.9932 4.66209L7.25594 1.19982C7.27396 1.15042 7.30359 1.10607 7.34233 1.07051C7.38108 1.03495 7.4278 1.00922 7.47857 0.995501C7.52934 0.981777 7.58266 0.980456 7.63404 0.991651C7.68543 1.00285 7.73337 1.02623 7.77383 1.05982C8.95344 2.04147 11.7031 4.67029 11.7031 7.87498ZM11.0469 7.87498C11.0469 5.22811 8.9332 2.96186 7.70711 1.87029L6.43344 5.36264C6.4147 5.41411 6.38337 5.46007 6.34232 5.49633C6.30126 5.53259 6.25178 5.558 6.19839 5.57023C6.145 5.58246 6.08939 5.58114 6.03664 5.56637C5.9839 5.5516 5.93568 5.52386 5.89641 5.48568L4.36516 3.99709C3.42727 5.31178 2.95312 6.61717 2.95312 7.87498C2.95312 8.94828 3.37949 9.97762 4.13843 10.7366C4.89736 11.4955 5.9267 11.9219 7 11.9219C8.0733 11.9219 9.10264 11.4955 9.86157 10.7366C10.6205 9.97762 11.0469 8.94828 11.0469 7.87498Z" fill="#404040"/>
</svg>
