<svg width="14" height="14" viewBox="0 0 14 14" fill="none" xmlns="http://www.w3.org/2000/svg">
<g clip-path="url(#clip0_19_167)">
<path d="M3.03398 11.25H10.9667C11.1012 11.25 11.2165 11.1947 11.3125 11.0842C11.4085 10.9737 11.447 10.8512 11.428 10.7167L10.489 4.13925C10.4695 4.02425 10.4165 3.9305 10.33 3.858C10.2435 3.786 10.1425 3.75 10.027 3.75H3.97223C3.85723 3.75 3.75623 3.786 3.66923 3.858C3.58273 3.93 3.52998 4.02375 3.51098 4.13925L2.57198 10.7167C2.55298 10.8512 2.59148 10.9737 2.68748 11.0842C2.78348 11.1947 2.89948 11.25 3.03398 11.25ZM6.99998 3C7.21248 3 7.39073 2.928 7.53473 2.784C7.67873 2.64 7.75048 2.462 7.74998 2.25C7.74948 2.038 7.67748 1.86 7.53398 1.716C7.39048 1.572 7.21248 1.5 6.99998 1.5C6.78748 1.5 6.60948 1.572 6.46598 1.716C6.32248 1.86 6.25048 2.038 6.24998 2.25C6.24948 2.462 6.32148 2.64025 6.46598 2.78475C6.61048 2.92925 6.78848 3.001 6.99998 3ZM8.28248 3H10.042C10.3495 3 10.6145 3.0985 10.837 3.2955C11.059 3.4925 11.1915 3.7435 11.2345 4.0485L12.1735 10.626C12.2265 10.989 12.1325 11.3088 11.8915 11.5853C11.651 11.8618 11.3427 12 10.9667 12H3.03323C2.65723 12 2.34873 11.8618 2.10773 11.5853C1.86673 11.3088 1.77273 10.9887 1.82573 10.6252L2.76473 4.0485C2.80823 3.7435 2.94073 3.4925 3.16223 3.2955C3.38573 3.0985 3.65123 3 3.95873 3H5.71898C5.65248 2.894 5.59948 2.777 5.55998 2.649C5.51998 2.5205 5.49998 2.3875 5.49998 2.25C5.49998 1.827 5.64423 1.47125 5.93273 1.18275C6.22123 0.89425 6.57698 0.75 6.99998 0.75C7.42298 0.75 7.77873 0.89425 8.06723 1.18275C8.35573 1.47125 8.49998 1.827 8.49998 2.25C8.49998 2.3875 8.48023 2.5205 8.44073 2.649C8.40123 2.777 8.34848 2.894 8.28248 3Z" fill="#404040"/>
</g>
<defs>
<clipPath id="clip0_19_167">
<rect width="14" height="14" fill="white"/>
</clipPath>
</defs>
</svg>
